<?xml version="1.0" encoding="utf-8"?>
<!-- Generator: Adobe Illustrator 16.0.0, SVG Export Plug-In . SVG Version: 6.00 Build 0)  -->
<!DOCTYPE svg PUBLIC "-//W3C//DTD SVG 1.1//EN" "http://www.w3.org/Graphics/SVG/1.1/DTD/svg11.dtd">
<svg version="1.1" id="Layer_1" xmlns="http://www.w3.org/2000/svg" xmlns:xlink="http://www.w3.org/1999/xlink" x="0px" y="0px"
	 width="128px" height="128px" viewBox="0 0 128 128" enable-background="new 0 0 128 128" xml:space="preserve">
<path d="M105.193,8.115H22.579C14.558,8.115,8,14.674,8,22.695v82.612c0,8.021,6.558,14.578,14.579,14.578h43.229V73.309H54.167
	V56.033h11.642v-8.917c0.123-2.544,0.455-4.997,1.002-7.365c0.545-2.363,1.607-4.457,3.185-6.274
	c1.579-1.94,3.696-3.492,6.366-4.641c2.668-1.154,6.123-1.851,10.371-2.094h14.19v17.646H88.914c-0.854,0-1.607,0.185-2.275,0.551
	c-0.666,0.359-1.246,0.782-1.729,1.267c-0.484,0.607-0.877,1.276-1.183,2.003c-0.3,0.726-0.449,1.519-0.449,2.367v5.458h17.279
	l-2.91,17.276H83.277v46.575h21.916c8.02,0,14.578-6.559,14.578-14.577V22.695C119.771,14.674,113.213,8.115,105.193,8.115z"/>
</svg>
