<?xml version="1.0" encoding="utf-8"?>
<!-- Generator: Adobe Illustrator 16.0.0, SVG Export Plug-In . SVG Version: 6.00 Build 0)  -->
<!DOCTYPE svg PUBLIC "-//W3C//DTD SVG 1.1//EN" "http://www.w3.org/Graphics/SVG/1.1/DTD/svg11.dtd">
<svg version="1.1" id="Layer_1" xmlns="http://www.w3.org/2000/svg" xmlns:xlink="http://www.w3.org/1999/xlink" x="0px" y="0px"
	 width="128px" height="128px" viewBox="0 0 128 128" enable-background="new 0 0 128 128" xml:space="preserve">
<path d="M120,73V57h-16.802c-1.036-5.106-3.05-9.856-5.83-14.054l11.887-11.887L97.941,19.745L86.054,31.632
	c-4.197-2.78-8.947-4.794-14.054-5.831V9H56v16.802c-5.106,1.037-9.855,3.05-14.054,5.831L30.059,19.745L18.745,31.059
	l11.887,11.887c-2.78,4.198-4.794,8.947-5.831,14.054H8v16h16.802c1.037,5.106,3.05,9.856,5.831,14.054L18.745,98.941l11.314,11.313
	l11.887-11.887c4.198,2.78,8.947,4.794,14.054,5.83V121h16v-16.802c5.106-1.036,9.856-3.05,14.055-5.83l11.887,11.887l11.313-11.313
	L97.368,87.055c2.78-4.198,4.794-8.948,5.83-14.055H120z M64,81c-8.836,0-16-7.163-16-16c0-8.836,7.164-16,16-16
	c8.837,0,16,7.164,16,16C80,73.837,72.837,81,64,81z"/>
</svg>
