<?xml version="1.0" encoding="utf-8"?>
<!-- Generator: Adobe Illustrator 16.0.0, SVG Export Plug-In . SVG Version: 6.00 Build 0)  -->
<!DOCTYPE svg PUBLIC "-//W3C//DTD SVG 1.1//EN" "http://www.w3.org/Graphics/SVG/1.1/DTD/svg11.dtd">
<svg version="1.1" id="Layer_1" xmlns="http://www.w3.org/2000/svg" xmlns:xlink="http://www.w3.org/1999/xlink" x="0px" y="0px"
	 width="128px" height="128px" viewBox="0 0 128 128" enable-background="new 0 0 128 128" xml:space="preserve">
<g>
	<path d="M88,23.947v21.057c6.365,6.234,10.333,14.904,10.333,24.497c0,18.932-15.401,34.334-34.332,34.334
		c-18.932,0-34.333-15.402-34.333-34.334c0-9.592,3.968-18.262,10.333-24.496V23.948C23.651,32.577,12.501,49.729,12.501,69.5
		c0,28.443,23.058,51.5,51.5,51.5S115.5,97.943,115.5,69.5C115.5,49.729,104.349,32.575,88,23.947z"/>
</g>
<path d="M56,9v76.566c2.412,1.2,5.122,1.893,8,1.893s5.588-0.692,8-1.894V9H56z"/>
</svg>
