<?xml version="1.0" encoding="utf-8"?>
<!-- Generator: Adobe Illustrator 16.0.0, SVG Export Plug-In . SVG Version: 6.00 Build 0)  -->
<!DOCTYPE svg PUBLIC "-//W3C//DTD SVG 1.1//EN" "http://www.w3.org/Graphics/SVG/1.1/DTD/svg11.dtd">
<svg version="1.1" id="Layer_1" xmlns="http://www.w3.org/2000/svg" xmlns:xlink="http://www.w3.org/1999/xlink" x="0px" y="0px"
	 width="128px" height="128px" viewBox="0 0 128 128" enable-background="new 0 0 128 128" xml:space="preserve">
<path d="M96,9H32v26.333H16c-4.418,0-8,3.582-8,8v51h24V121h64V94.333h24v-51c0-4.418-3.582-8-8-8H96V9z M88.227,113.227H39.774
	V80.773h48.453V113.227z M88.845,35.333H39.155V16.155h49.689V35.333z M104,57.333c-3.313,0-6-2.686-6-6c0-3.313,2.687-6,6-6
	s6,2.687,6,6C110,54.647,107.313,57.333,104,57.333z"/>
</svg>
