<?xml version="1.0" encoding="utf-8"?>
<!-- Generator: Adobe Illustrator 16.0.0, SVG Export Plug-In . SVG Version: 6.00 Build 0)  -->
<!DOCTYPE svg PUBLIC "-//W3C//DTD SVG 1.1//EN" "http://www.w3.org/Graphics/SVG/1.1/DTD/svg11.dtd">
<svg version="1.1" id="Layer_1" xmlns="http://www.w3.org/2000/svg" xmlns:xlink="http://www.w3.org/1999/xlink" x="0px" y="0px"
	 width="128px" height="128px" viewBox="0 0 128 128" enable-background="new 0 0 128 128" xml:space="preserve">
<path d="M72,13c0-2.209-1.791-4-4-4h-8c-2.209,0-4,1.791-4,4v4H28v16h72V17H72V13z"/>
<path d="M32,113c0,4.418,3.582,8,8,8h48c4.418,0,8-3.582,8-8V41H32V113z M44,113c-2.209,0-4-1.791-4-4V49h8v64H44z M68,113h-8V49h8
	V113z M84,113h-4V49h8v60C88,111.209,86.209,113,84,113z"/>
</svg>
