<?xml version="1.0" encoding="utf-8"?>
<!-- Generator: Adobe Illustrator 16.0.0, SVG Export Plug-In . SVG Version: 6.00 Build 0)  -->
<!DOCTYPE svg PUBLIC "-//W3C//DTD SVG 1.1//EN" "http://www.w3.org/Graphics/SVG/1.1/DTD/svg11.dtd">
<svg version="1.1" id="Layer_1" xmlns="http://www.w3.org/2000/svg" xmlns:xlink="http://www.w3.org/1999/xlink" x="0px" y="0px"
	 width="128px" height="128px" viewBox="0 0 128 128" enable-background="new 0 0 128 128" xml:space="preserve">
<g>
	<path d="M120.248,29.369c-0.814,1.358-1.697,2.648-2.648,3.87c-0.95,1.224-1.901,2.31-2.853,3.261
		c-1.086,0.95-2.105,1.832-3.055,2.647c-0.951,0.814-1.834,1.494-2.648,2.037c0,0.137,0,0.271,0,0.408v0.203v0.204
		c0.406,9.37-0.985,18.164-4.177,26.381s-7.775,15.381-13.75,21.493c-5.841,6.111-12.767,10.933-20.779,14.463
		c-8.013,3.531-16.706,5.297-26.076,5.297c-3.259,0-6.485-0.237-9.676-0.713c-3.191-0.476-6.35-1.12-9.474-1.936
		c-2.987-0.951-5.907-2.037-8.759-3.259c-2.853-1.223-5.637-2.648-8.353-4.278c3.939,0.544,7.639,0.577,11.103,0.102
		c3.463-0.476,6.621-1.257,9.473-2.343c2.717-1.087,5.093-2.343,7.13-3.769s3.463-2.615,4.278-3.564c-2.58,0-5.059-0.51-7.436-1.528
		s-4.516-2.275-6.417-3.769c-1.901-1.63-3.463-3.362-4.686-5.195c-1.222-1.834-1.901-3.633-2.037-5.398
		c1.086,0.271,2.614,0.408,4.583,0.408c1.97,0,3.633-0.341,4.991-1.02c-3.531-0.951-6.451-2.309-8.759-4.073
		c-2.309-1.767-4.142-3.668-5.501-5.705c-1.358-2.036-2.309-4.177-2.852-6.417s-0.815-4.38-0.815-6.417
		c0.679,0.543,1.46,0.985,2.342,1.324c0.883,0.339,1.8,0.645,2.75,0.916c0.951,0.137,1.868,0.238,2.75,0.307
		c0.882,0.067,1.664,0.102,2.342,0.102c-2.037-1.223-3.871-2.954-5.5-5.195c-1.629-2.24-2.852-4.719-3.667-7.435
		c-0.815-2.718-1.087-5.638-0.815-8.761c0.271-3.124,1.291-6.247,3.056-9.371c2.853,3.803,6.18,7.164,9.982,10.084
		s7.877,5.399,12.223,7.436c4.346,2.038,8.794,3.634,13.343,4.787c4.55,1.155,8.998,1.732,13.343,1.732
		c-0.136-0.814-0.271-1.63-0.407-2.444s-0.203-1.698-0.203-2.648c0-3.261,0.61-6.281,1.833-9.065
		c1.222-2.785,2.92-5.195,5.093-7.232c2.037-2.173,4.481-3.871,7.334-5.093c2.852-1.222,5.84-1.833,8.964-1.833
		c1.629,0,3.226,0.169,4.787,0.509c1.562,0.339,3.089,0.849,4.583,1.528c1.358,0.543,2.683,1.256,3.973,2.139
		c1.291,0.883,2.411,1.936,3.362,3.158v-0.204c0.95,0,2.07-0.17,3.36-0.509c1.29-0.34,2.683-0.713,4.177-1.121
		c1.358-0.543,2.648-1.12,3.87-1.731c1.223-0.611,2.241-1.188,3.057-1.731c-0.272,1.223-0.781,2.479-1.528,3.769
		c-0.747,1.29-1.596,2.546-2.546,3.769c-0.816,1.086-1.732,2.105-2.751,3.056c-1.02,0.951-1.936,1.63-2.75,2.038
		c2.581-0.272,5.127-0.815,7.639-1.631C117.565,30.591,119.297,29.912,120.248,29.369z"/>
</g>
</svg>
